<svg xmlns="http://www.w3.org/2000/svg" xmlns:xlink="http://www.w3.org/1999/xlink" width="35" height="35" viewBox="0 0 35 35">
  <defs>
    <rect id="h2o-a" width="35" height="35"/>
    <rect id="h2o-c" width="9.55" height="7.408" x=".583" y=".581"/>
    <rect id="h2o-e" width="9.55" height="7.409" x=".583" y=".58"/>
  </defs>
  <g fill="none" fill-rule="evenodd">
    <rect width="35" height="35"/>
    <mask id="h2o-b" fill="#fff">
      <use xlink:href="#h2o-a"/>
    </mask>
    <use fill="#FFD900" xlink:href="#h2o-a"/>
    <g mask="url(#h2o-b)">
      <g transform="translate(3.111 11.667)">
        <g transform="translate(17.889)">
          <mask id="h2o-d" fill="#fff">
            <use xlink:href="#h2o-c"/>
          </mask>
          <g mask="url(#h2o-d)">
            <mask id="h2o-f" fill="#fff">
              <use xlink:href="#h2o-e"/>
            </mask>
            <path fill="#030404" fill-rule="nonzero" d="M9.541,0.581 C9.21977778,0.581 8.94988889,0.850111111 8.94988889,1.16977778 C8.94988889,1.50033333 9.21977778,1.75933333 9.541,1.75933333 C9.86222222,1.75933333 10.1321111,1.50033333 10.1321111,1.16977778 C10.1321111,0.850111111 9.86222222,0.581 9.541,0.581 L9.541,0.581 Z M9.95633333,2.99911111 L9.12644444,2.99911111 L9.12644444,7.85555556 L9.95633333,7.85555556 L9.95633333,2.99911111 Z M5.00733333,3.62911111 C6.03477778,3.62911111 6.64688889,4.41466667 6.64688889,5.38611111 C6.64688889,6.36766667 6.08611111,7.22477778 5.01822222,7.22477778 C3.98066667,7.22477778 3.42066667,6.32644444 3.42066667,5.37522222 C3.42066667,4.466 4.04288889,3.62911111 5.00733333,3.62911111 L5.00733333,3.62911111 Z M7.43477778,2.99911111 L6.60488889,2.99911111 L6.60488889,3.69133333 L6.58466667,3.69133333 C6.18022222,3.17488889 5.57822222,2.86455556 4.914,2.86455556 C3.45177778,2.86455556 2.56977778,4.053 2.56977778,5.43744444 C2.56977778,6.78066667 3.472,7.99011111 4.90388889,7.99011111 C5.58833333,7.99011111 6.15922222,7.721 6.58466667,7.18355556 L6.60488889,7.18355556 L6.60488889,7.85555556 L7.43477778,7.85555556 L7.43477778,2.99911111 L7.43477778,2.99911111 Z M1.16355556,6.83277778 C0.842333333,6.83277778 0.582555556,7.091 0.582555556,7.40055556 C0.582555556,7.721 0.842333333,7.99011111 1.16355556,7.99011111 C1.48555556,7.99011111 1.74455556,7.721 1.74455556,7.40055556 C1.74455556,7.091 1.48555556,6.83277778 1.16355556,6.83277778 L1.16355556,6.83277778 Z" mask="url(#h2o-f)"/>
          </g>
        </g>
        <polygon fill="#231F20" fill-rule="nonzero" points="2.354 4.133 2.354 1.68 .712 1.68 .712 8.036 2.354 8.036 2.354 5.431 4.726 5.431 4.726 8.036 6.368 8.036 6.368 1.68 4.726 1.68 4.726 4.133 2.354 4.133"/>
        <path fill="#231F20" fill-rule="nonzero" d="M9.35666667 10.0302222L10.0628889 9.36833333C10.5272222 8.94366667 10.7986667 8.561 10.7986667 7.90611111 10.7986667 6.91055556 9.996 6.279 9.04322222 6.279 7.96911111 6.279 7.30488889 6.98911111 7.26911111 8.03911111L8.57188889 8.03911111C8.56022222 7.973 8.554 7.90611111 8.554 7.84544444 8.554 7.53588889 8.729 7.287 9.04866667 7.287 9.36288889 7.287 9.56822222 7.59033333 9.56822222 7.88122222 9.56822222 8.30044444 9.31466667 8.71344444 9.04866667 9.00433333L7.19055556 11.0374444 10.8468889 11.0374444 10.8468889 10.0302222 9.35666667 10.0302222M14.5141111 3.07144444C15.4948889 3.07144444 16.2991111 3.87255556 16.2991111 4.74911111 16.2991111 5.845 15.4948889 6.64533333 14.5141111 6.64533333 13.5333333 6.64533333 12.7291111 5.845 12.7291111 4.74911111 12.7291111 3.87255556 13.5333333 3.07144444 14.5141111 3.07144444M14.5141111 1.47C12.6956667 1.47 11.0195556 2.81866667 11.0195556 4.74055556 11.0195556 6.797 12.4864444 8.24755556 14.5141111 8.24755556 16.5417778 8.24755556 18.0086667 6.797 18.0086667 4.74055556 18.0086667 2.81866667 16.3325556 1.47 14.5141111 1.47"/>
      </g>
    </g>
  </g>
</svg>
