<svg xmlns="http://www.w3.org/2000/svg" width="76" height="19" viewBox="0 0 76 19">
  <g fill="#DD5D28" fill-rule="evenodd">
    <path fill-rule="nonzero" d="M20.6768429 11.1997264C20.6768429 13.3582909 20.5122063 14.0630615 20.0731655 14.5833133 19.5939072 15.0262173 18.9670506 15.2711798 18.3170148 15.2696278L18.4816539 16.5536677C19.4891941 16.5676356 20.4658983 16.2033378 21.2219852 15.5316203 22.0085918 14.7124639 22.2829917 13.57968 22.2829917 11.8417883L22.2829917 3.67988 20.6731852 3.67988 20.6731852 11.2108 20.6768429 11.1997264zM32.6839414 10.216227C32.6839414 11.1460779 32.6839414 11.9651923 32.7570946 12.6699629L31.3485181 12.6699629 31.2570766 11.1940218 31.220458 11.1940218C30.9239443 11.7098692 30.4964344 12.1366661 29.9819711 12.4304534 29.4675078 12.7242826 28.8847025 12.8744479 28.2935543 12.8655135 26.9032661 12.8655135 25.2422397 12.0832693 25.2422397 8.92480463L25.2422397 3.66310173 26.8520462 3.66310173 26.8520462 8.65542973C26.8520462 10.3675249 27.364257 11.5187229 28.8240575 11.5187229 29.2819907 11.5102919 29.7272772 11.3657472 30.1040749 11.1031675 30.4809145 10.8406297 30.7725206 10.4717598 30.9424004 10.0428237 31.0400498 9.77458133 31.0896296 9.49094492 31.0887487 9.20521123L31.0887487 3.6704814 32.6985804 3.6704814 32.6985804 10.216227 32.6839414 10.216227zM35.7179312 6.60614197C35.7179312 5.45491456 35.6813448 4.52508041 35.6447583 3.65427972L37.0899239 3.65427972 37.1630981 5.19662589 37.1996831 5.19662589C37.5158442 4.64401307 37.9756984 4.18901195 38.5295864 3.88077023 39.0834701 3.57253144 39.7103309 3.42276533 40.3424601 3.44764937 42.479129 3.44764937 44.0889187 5.29256396 44.0889187 8.02301533 44.0889187 11.2589955 42.153505 12.8567049 40.0644025 12.8567049 39.5281359 12.8793975 38.9952333 12.7610269 38.5180094 12.513296 38.0407854 12.2655231 37.6356493 11.8968629 37.3423738 11.4435144L37.3057846 11.4435144 37.3057846 16.3325303 35.7142727 16.3325303 35.7142727 6.59138131 35.7179312 6.60614197zM37.3094465 9.00454328C37.3136452 9.22891051 37.3381373 9.45248076 37.3826164 9.67240175 37.5137469 10.2178209 37.8226681 10.703048 38.2598549 11.050274 38.6970459 11.397542 39.2371757 11.5866749 39.7936685 11.5873879 41.4949585 11.5873879 42.479129 10.1741974 42.479129 8.11160452 42.479129 6.30726252 41.5461741 4.76491718 39.8485502 4.76491718 39.2776239 4.78102851 38.7284255 4.98914599 38.2882521 5.35618711 37.8480746 5.72323241 37.542186 6.22813208 37.4192056 6.79063148 37.3547226 7.00766661 37.3178398 7.23207997 37.3094465 7.45848995L37.3094465 9.00085207 37.3094465 9.00454328zM46.9409579 3.67149093L48.8763843 8.98852013C49.0776101 9.58259621 49.2971284 10.2910581 49.4434893 10.8334571L49.4800659 10.8334571C49.6447025 10.2947493 49.8276275 9.60474351 50.0471709 8.95534113L51.803309 3.67518076 53.5045822 3.67518076 51.0935049 10.0917743C49.9410485 13.1764986 49.1580995 14.7594011 48.0605038 15.7261642 47.505886 16.246416 46.8260898 16.6114689 46.0884925 16.7851238L45.6860409 15.4088455C46.2021065 15.2354422 46.6803119 14.9635925 47.0946216 14.6081452 47.6800485 14.1147806 48.1435184 13.4907133 48.4483206 12.7853555 48.5133951 12.6635453 48.5567417 12.5311649 48.5763723 12.3942543 48.561922 12.2466896 48.5248966 12.1023127 48.4666131 11.9661991L45.1957803 3.67518076 46.9519309 3.67518076 46.9409579 3.67149093zM57.7297662 1.08344493L57.7297662 3.66632316 60.0310718 3.66632316 60.0310718 4.91348445 57.7297662 4.91348445 57.7297662 9.76191375C57.7297662 10.8688592 58.0407512 11.5108791 58.9371211 11.5108791 59.251596 11.5158287 59.5653074 11.478581 59.8700844 11.4001846L59.9432376 12.6288982C59.485401 12.7915214 59.0015161 12.8666041 58.516377 12.8502873 58.1946498 12.8701695 57.8724947 12.8190797 57.5723526 12.7005413 57.2722148 12.5820029 57.0013131 12.3989102 56.7785188 12.1639727 56.3211855 11.6806331 56.1565489 10.8799328 56.1565489 9.8209732L56.1565489 4.91348445 54.7845532 4.91348445 54.7845532 3.66632316 56.1565489 3.66632316 56.1565489 1.50777541 57.7297662 1.08344493zM62.9926856 8.46516432C63.0292748 10.6790551 64.4195588 11.59045 66.0256909 11.59045 66.8654007 11.6170435 67.7007481 11.4583632 68.4733448 11.1255245L68.7477531 12.2952206C67.8220548 12.6872865 66.8245456 12.8771744 65.8208284 12.8523845 63.0987871 12.8523845 61.4706881 11.0295949 61.4706881 8.3138664 61.4706881 5.59817151 63.0439097 3.46176267 65.6195984 3.46176267 68.5062721 3.46176267 69.2782396 6.04464089 69.2782396 7.70137619 69.2755132 7.95686707 69.2572249 8.21193849 69.2233747 8.46516432L63.0036628 8.46516432 62.9926856 8.46516432zM67.7086758 7.2954934C67.7269641 6.25496052 67.287961 4.635129 65.4805696 4.635129 63.8524706 4.635129 63.1426916 6.15902664 63.01464 7.2954934L67.7123251 7.2954934 67.7086758 7.2954934zM71.6192034 6.47704167C71.6192034 5.41806109 71.6009101 4.50667464 71.5460305 3.66908357L72.9546112 3.66908357 73.0094887 5.43650879 73.0826629 5.43650879C73.4851145 4.22624707 74.4546586 3.46614295 75.5303 3.46614295 75.6845131 3.46386889 75.8383278 3.48248429 75.9876123 3.52149029L75.9876123 5.06383856C75.8074138 5.02421252 75.6232683 5.00564319 75.4388333 5.00849129 74.3046526 5.00849129 73.503407 5.88297817 73.2838887 7.10800056 73.2386042 7.36012321 73.2141289 7.61559312 73.2107145 7.87180128L73.2107145 12.6685787 71.6192034 12.6685787 71.6192034 6.47704167z"/>
    <ellipse cx="7.31" cy="8.847" rx="7.303" ry="7.322"/>
    <ellipse cx="1.194" cy="2.288" rx="1" ry="1"/>
    <ellipse cx="12.179" cy=".976" rx="1" ry="1"/>
    <ellipse cx="2.35" cy="16.81" rx="1.187" ry="1.19"/>
  </g>
</svg>
