<svg xmlns="http://www.w3.org/2000/svg" xmlns:xlink="http://www.w3.org/1999/xlink" width="68" height="25" viewBox="0 0 68 25">
  <defs>
    <polygon id="rstudio-a" points="0 23.97 0 .079 23.891 .079 23.891 23.97 0 23.97"/>
  </defs>
  <g fill="none" fill-rule="evenodd">
    <path fill="#4D4D4D" d="M67.839962 7.585281C67.846762 7.160791 67.510672 6.813141 67.092132 6.811441 66.689402 6.809911 66.348552 7.144641 66.340902 7.548391 66.332912 7.966761 66.660672 8.311521 67.072242 8.318151 67.492652 8.324781 67.833162 7.999741 67.839962 7.585281L67.839962 7.585281zM67.999932 7.694251C67.984632 7.735901 67.966952 7.777041 67.954202 7.819541 67.820412 8.263071 67.404422 8.518751 66.930972 8.447691 66.512942 8.384961 66.193852 8.005521 66.192662 7.569301 66.191132 7.123561 66.517362 6.743271 66.958682 6.676121 67.395752 6.609821 67.820072 6.879951 67.952672 7.308521 67.967802 7.357141 67.984292 7.405421 67.999932 7.453871L67.999932 7.694251zM53.542537 13.504324C53.533357 13.503644 53.524517 13.502964 53.515507 13.502284 53.515507 13.302024 53.514997 13.101764 53.515507 12.901674 53.517207 12.185634 53.303007 11.557994 52.734017 11.093724 51.751757 10.292004 50.308967 10.538164 49.633727 11.630924 49.105027 12.486534 49.031587 13.426294 49.207197 14.393764 49.319227 15.011204 49.571847 15.563534 50.069947 15.969494 51.275587 16.952264 53.112777 16.284504 53.441897 14.731214 53.526217 14.333074 53.511597 13.913854 53.542537 13.504324L53.542537 13.504324zM54.898967 17.361454L53.717637 17.361454C53.694347 16.923874 53.671057 16.491054 53.645387 16.012504 53.596597 16.072344 53.577047 16.090364 53.564637 16.112294 52.993097 17.119204 52.096177 17.550154 50.972817 17.538594 49.637637 17.524824 48.516487 16.728374 48.039127 15.395404 47.492237 13.867614 47.563637 12.360734 48.475687 10.978124 49.473757 9.465294 51.324207 9.226954 52.578807 9.864624 52.911157 10.033434 53.185537 10.270244 53.399737 10.576074 53.423707 10.610414 53.452947 10.640844 53.508877 10.708164L53.508877 6.131084 54.898967 6.131084 54.898967 17.361454zM26.022529 16.852032C26.145439 16.462902 26.263419 16.089412 26.372389 15.743802 26.795519 15.907002 27.200119 16.094002 27.623079 16.218952 28.312089 16.422612 29.018779 16.472932 29.720709 16.275052 30.394249 16.085332 30.887589 15.685322 31.034979 14.971832 31.193589 14.203772 30.973779 13.559982 30.323189 13.087722 29.916719 12.792772 29.459079 12.601352 28.992769 12.426422 28.374649 12.194712 27.789509 11.905882 27.265059 11.496012 25.743049 10.306862 25.963029 7.950322 27.660479 7.007502 28.404569 6.594062 29.205949 6.474212 30.043539 6.520282 30.670669 6.554622 31.277399 6.669712 31.855059 6.926922 32.001599 6.992032 32.053109 7.056972 31.988339 7.221362 31.871549 7.517842 31.779069 7.824012 31.669249 8.147182 31.594449 8.110122 31.531549 8.077142 31.467289 8.047392 30.666249 7.675942 29.830869 7.543512 28.962509 7.726942 28.206859 7.886572 27.717939 8.411022 27.645349 9.138622 27.593669 9.658652 27.767239 10.106942 28.165209 10.456972 28.620299 10.857152 29.172629 11.079852 29.725469 11.298642 30.386939 11.560442 31.030389 11.851822 31.570309 12.330372 32.129949 12.826432 32.417249 13.452542 32.466039 14.194252 32.573139 15.823022 31.623009 16.981232 30.155569 17.364072 28.817669 17.713082 27.515979 17.564332 26.262399 16.986162 26.185049 16.950462 26.113139 16.903032 26.022529 16.852032M64.131837 16.502886C64.917237 16.489626 65.524987 16.100326 65.945227 15.417096 66.451997 14.592936 66.538527 13.691256 66.374307 12.755406 66.302737 12.346896 66.156537 11.965076 65.944377 11.606716 65.118177 10.210846 63.112687 10.254706 62.334257 11.579006 61.600707 12.826976 61.585407 14.127306 62.279347 15.398906 62.659637 16.096246 63.280987 16.479596 64.131837 16.502886M67.882037 13.485726C67.868097 14.257866 67.734477 15.000426 67.351467 15.679236 66.750007 16.745476 65.815857 17.334186 64.620077 17.501126 63.496207 17.657866 62.469917 17.408136 61.607167 16.640076 60.940087 16.046096 60.574077 15.281946 60.441817 14.407636 60.289667 13.402256 60.368207 12.418296 60.845397 11.503866 61.479667 10.287856 62.514627 9.663276 63.867827 9.554136 64.605457 9.494806 65.318097 9.606666 65.974977 9.962646 67.082867 10.563086 67.637067 11.538206 67.819987 12.752176 67.856537 12.994256 67.862147 13.241096 67.882037 13.485726M40.875871 9.696919L40.875871 9.919279C40.877571 11.314639 40.869071 12.710169 40.887771 14.105359 40.892531 14.460999 40.944381 14.826329 41.040771 15.168709 41.334191 16.211319 42.261201 16.655699 43.272871 16.267589 44.038381 15.974169 44.560961 15.214439 44.561131 14.394189 44.561301 12.901589 44.561131 11.408989 44.561131 9.916389L44.561131 9.706439 45.971961 9.706439 45.971961 17.360689C45.985901 17.357459 45.964651 17.366809 45.943231 17.366809 45.566171 17.367659 45.189111 17.367489 44.789101 17.367489 44.760711 16.955579 44.732661 16.551319 44.704611 16.146719 44.486501 16.387949 44.300181 16.636149 44.072891 16.838109 43.113411 17.691169 41.570321 17.788239 40.593331 17.068629 40.048821 16.667769 39.759991 16.100989 39.627561 15.459239 39.544941 15.059059 39.497001 14.644939 39.492581 14.236599 39.476941 12.789729 39.488671 11.342859 39.483231 9.895989 39.482721 9.742139 39.518421 9.688079 39.681111 9.693009 40.073641 9.705079 40.466851 9.696919 40.875871 9.696919M37.817367 16.339448C37.837937 16.639158 37.862587 16.957398 37.877717 17.275978 37.879417 17.310148 37.832157 17.369818 37.796797 17.379678 37.153857 17.558518 36.505987 17.631788 35.856757 17.416228 35.123377 17.172958 34.796297 16.604478 34.680697 15.887758 34.633607 15.595698 34.611337 15.296838 34.609637 15.000868 34.602327 13.662458 34.606407 12.324048 34.606407 10.985638L34.606407 10.759538 33.411817 10.759538C33.411817 10.418348 33.408247 10.099598 33.417767 9.781358 33.418617 9.751948 33.502427 9.701628 33.548497 9.700778 33.891217 9.693808 34.234277 9.697038 34.606407 9.697038L34.606407 9.371318C34.606407 9.045428 34.603347 8.719198 34.609807 8.393308 34.610827 8.344008 34.647037 8.263768 34.684267 8.251698 35.101277 8.116718 35.522027 7.992448 35.962157 7.858998L35.962157 9.691938 37.948267 9.691938 37.948267 10.754778 35.976437 10.754778C35.972697 10.835188 35.967597 10.895538 35.967597 10.956058 35.967087 12.311468 35.960627 13.667218 35.973037 15.022628 35.975417 15.280688 36.026247 15.546398 36.102577 15.793918 36.219027 16.172338 36.507857 16.372258 36.901237 16.380928 37.201627 16.387558 37.502697 16.355088 37.817367 16.339448M57.232727 9.697412C57.670137 9.697412 58.092417 9.695032 58.514187 9.701832 58.548867 9.702342 58.592557 9.759972 58.613297 9.800602 58.629617 9.832392 58.617207 9.878972 58.617207 9.919092L58.617207 17.158542 58.617207 17.356082 57.232727 17.356082 57.232727 9.697412zM57.051099 7.546181C57.050079 7.036351 57.402829 6.673061 57.901609 6.670681 58.409229 6.668131 58.762319 7.020031 58.764699 7.530711 58.767249 8.049551 58.419769 8.388701 57.885969 8.388701 57.388209 8.388531 57.052289 8.049381 57.051099 7.546181"/>
    <path fill="#4D4D4D" d="M66.92339,7.553746 C67.04494,7.494246 67.13895,7.458036 67.21919,7.402276 C67.23857,7.388846 67.22803,7.278516 67.2061,7.268486 C67.12178,7.230406 67.02692,7.214936 66.92339,7.187566 L66.92339,7.553746 Z M66.91948,7.901736 C66.98425,7.943046 67.03321,7.974156 67.08234,8.005266 C67.07503,8.025156 67.06789,8.045216 67.06058,8.065106 C66.95467,8.065106 66.84859,8.067996 66.74285,8.063236 C66.71514,8.062046 66.68862,8.036886 66.66142,8.022776 C66.67536,7.996256 66.6876,7.968546 66.70409,7.943556 C66.70868,7.936756 66.72823,7.941346 66.73605,7.934886 C66.81051,7.873516 66.78671,7.266276 66.71089,7.201166 C66.68607,7.179746 66.6706,7.147276 66.6213,7.078766 C66.78365,7.078766 66.90044,7.080466 67.0174,7.078426 C67.16037,7.075876 67.30351,7.087266 67.35995,7.243326 C67.41571,7.397176 67.3557,7.522126 67.16972,7.625146 C67.28396,7.739726 67.38834,7.840196 67.4866,7.946616 C67.50717,7.968886 67.50428,8.013086 67.51227,8.047086 C67.44376,8.041816 67.35434,8.061196 67.3115,8.025326 C67.24027,7.965316 67.20474,7.865186 67.1432,7.791066 C67.09271,7.730036 67.02624,7.682266 66.96708,7.628546 C66.94889,7.710486 66.93036,7.792426 66.91319,7.874706 C66.91132,7.884566 66.91812,7.896466 66.91948,7.901736 L66.91948,7.901736 Z"/>
    <g transform="translate(0 .091)">
      <mask id="rstudio-b" fill="#fff">
        <use xlink:href="#rstudio-a"/>
      </mask>
      <path fill="#73A8DA" d="M23.891222,12.024389 C23.891222,5.427029 18.543022,0.078659 11.945662,0.078659 C5.348302,0.078659 -6.8e-05,5.427029 -6.8e-05,12.024389 C-6.8e-05,18.621749 5.348302,23.969949 11.945662,23.969949 C18.543022,23.969949 23.891222,18.621749 23.891222,12.024389" mask="url(#rstudio-b)"/>
    </g>
    <path fill="#FEFEFE" d="M10.360446,11.086975 L10.360446,7.304815 C10.390876,7.300565 14.487536,6.590135 14.487536,9.047485 C14.350176,10.892325 13.028596,11.086975 10.360446,11.086975 L10.360446,11.086975 Z M16.049326,15.944895 C16.049326,15.944895 13.200126,11.841265 13.251636,11.859285 C15.053806,11.387365 15.631636,10.022775 15.631636,8.981525 C15.631636,6.418605 13.072116,6.184005 12.210556,6.184005 C11.043506,6.184005 9.367136,6.687375 7.782566,6.184005 L7.782566,7.086025 C7.782566,7.086025 8.538386,7.198905 9.254936,7.267415 L9.254936,15.944895 L7.784606,15.944895 L7.784606,16.948235 L12.073196,16.948235 L12.073196,15.944895 L10.360446,15.944895 L10.360446,12.022315 L12.110256,12.048155 L15.405706,16.948235 L17.345066,16.948235 L17.345066,15.944895 L16.049326,15.944895 Z"/>
  </g>
</svg>
