<svg xmlns="http://www.w3.org/2000/svg" width="39" height="35" viewBox="0 0 39 35">
  <g fill="none" fill-rule="evenodd">
    <path fill="#3071A9" fill-rule="nonzero" d="M27.1901771,0.0246301724 C23.9316392,0.012 20.3194806,1.03026379 18.372828,2.23098793 C17.6451866,2.67980776 16.8985452,3.18231379 16.1503064,3.71266897 C16.1503064,3.71266897 9.39848831,8.91149828 7.30062969,11.5278629 C7.01965383,11.8782845 6.76383107,12.2560284 6.54093107,12.6539405 C6.52590866,12.6825052 6.50988107,12.7113517 6.49513366,12.7401474 C6.47428797,12.7784595 6.45337504,12.8173319 6.43317245,12.8559879 C6.42838797,12.8656776 6.42445435,12.8759078 6.41970262,12.8856216 C6.08823797,13.5632216 5.83563797,14.2969983 5.71118969,15.0381 C5.71014659,15.0443328 5.7095259,15.0507198 5.70850004,15.0569578 C5.7047759,15.0829914 5.70115521,15.1089388 5.69772418,15.1350828 C5.58495176,15.9944509 5.63139573,16.9114078 5.98328452,17.6889621 C6.41105262,18.6341845 7.123084,19.339681 8.15462107,19.9195655 C9.14939349,20.4787819 10.969815,20.9540483 10.969815,20.9540483 L10.9401814,20.9675181 C12.4573728,21.2366198 14.0290418,21.1462509 15.5630262,20.9971517 C16.3152047,20.9240422 17.0676892,20.841256 17.8205693,20.7466129 C17.8210866,20.746625 17.8227504,20.7466009 17.823259,20.7466129 C17.8283969,20.7466991 17.844728,20.7465267 17.8501987,20.7466129 C17.8005814,20.4939569 17.72044,20.0101466 17.8178711,19.9842207 C18.8491125,19.7098147 19.463053,19.5442603 20.2666857,19.2649319 C21.0351125,18.9978405 21.5974719,18.7544802 22.2198107,18.4109448 C22.3753176,18.3251043 22.4984228,18.1820379 22.6616211,18.1119147 C23.1768909,17.8905121 23.7505978,17.8386328 24.30494,17.7536172 C24.7478392,17.6856931 25.1958495,17.6411784 25.6438409,17.6323888 C25.9344211,17.6266905 26.2286409,17.6203147 26.5139918,17.6754922 C26.7325521,17.7177543 26.9536176,17.7789672 27.1443797,17.8937034 C27.2719762,17.9704483 27.3902866,18.0743397 27.4730435,18.1981216 C27.5171952,18.2922026 27.5537081,18.3912414 27.588884,18.4890698 C29.2180987,17.8786086 30.8729443,17.1425448 32.1309099,15.9486603 C33.9916702,14.1826879 35.4700961,11.8746862 36.2014918,9.41579397 C36.5988176,8.0800181 36.6678073,6.57899138 36.2903926,5.23745345 C36.0570625,4.40806983 35.6973495,3.87429138 34.8949185,3.06072931 C33.2534383,1.39647931 30.8620926,0.367256034 28.5398538,0.100061207 C28.109934,0.0505948276 27.6556823,0.0264344828 27.1901771,0.0246301724 Z M16.1503064,3.71266897 C15.8169495,3.94895431 15.4825288,4.19092155 15.1508452,4.43734569 L16.1503064,3.71266897 Z M23.1788625,5.28325086 C24.2345366,5.28013017 24.8194875,5.44219483 24.8194875,5.44219483 C24.8194875,5.44219483 23.0826754,5.60428017 22.11744,5.77624655 C21.3529038,5.91245603 20.123134,6.14924052 19.1648538,6.47398362 C17.2963168,7.10719483 15.5187978,7.992525 13.763453,8.89316466 C12.4142573,9.58541552 11.1214599,10.3851353 9.83026331,11.1803414 C8.94777193,11.7238388 7.22519866,12.8775397 7.22519866,12.8775397 C7.22519866,12.8775397 8.69317193,10.9806043 12.5969659,8.7881 C13.7131728,8.1612 14.8523349,7.57313276 16.0209961,7.05049224 C16.9342038,6.64209397 17.8601357,6.25284138 18.8173323,5.96213017 C19.5445685,5.74126034 20.2950331,5.58826983 21.0452418,5.46644052 C21.5918314,5.37767759 22.1728849,5.32177845 22.6966426,5.29672069 C22.8662633,5.28860862 23.0280521,5.28369655 23.1788625,5.28325086 Z M9.78715987,7.09359569 C9.44140297,7.09563017 9.144909,7.50145948 8.96280642,7.80749655 C8.72945125,8.19966293 8.62575987,8.87266207 8.57756935,9.41040603 C9.32679004,8.76961207 10.074453,8.17351897 10.5926556,7.76978103 C10.3924418,7.43342069 10.1416314,7.14262414 9.85720297,7.09898362 C9.83373659,7.09538017 9.81021073,7.09345776 9.78715987,7.09359569 Z M24.8814487,8.80695776 C24.8814487,8.80695776 21.6219495,10.0438491 20.0026771,10.6900397 C18.1373125,11.4344371 16.2778323,12.1974362 14.4315564,12.9879922 C13.1400719,13.5409922 11.8559935,14.1125681 10.5791857,14.6986603 C9.40533831,15.2374905 7.07703056,16.3581431 7.07703056,16.3581431 C7.07703056,16.3581431 9.05968831,14.732731 12.7370521,13.1253845 C14.8830814,12.1873724 16.3301642,11.3655621 18.6395306,10.6119147 C19.7178625,10.2600078 20.7821038,9.86375431 21.8722892,9.55049224 C22.8650969,9.26521121 24.8814487,8.80695776 24.8814487,8.80695776 Z M26.0129142,12.1151474 C26.0129142,12.1151474 25.5553995,12.65995 24.5339271,13.3355138 C24.0231883,13.6732966 23.5753823,14.0274371 23.0737978,14.337669 C22.42459,14.739206 21.7581961,15.1127897 21.0721814,15.4475828 C20.2218366,15.8625733 19.3389099,16.2094681 18.4590349,16.5574966 C17.5965409,16.8986491 16.7290452,17.2304509 15.8458883,17.5138543 C14.7562426,17.863519 13.6560237,18.1870207 12.5376987,18.4298026 C11.7262392,18.6059655 10.0781081,18.8204276 10.0781081,18.8204276 C10.0781081,18.8204276 12.1117978,18.1314819 13.1249831,17.775169 C14.1947331,17.3989638 15.2091452,17.0439543 16.3254142,16.6221517 C17.4793176,16.1861284 18.3043978,15.8684371 19.2860823,15.4718284 C20.0887693,15.1475362 20.8969754,14.8340629 21.6810176,14.4669793 C22.2806728,14.186225 22.862653,13.8677672 23.445565,13.553725 C24.3093375,13.0883707 26.0129142,12.1151474 26.0129142,12.1151474 Z M28.3809099,14.2514621 C28.3809099,14.2514621 28.3536306,14.5893888 27.4945952,15.4691345 C27.1477616,15.8243293 26.5366892,16.2827034 26.1476125,16.522475 C24.6397081,17.451731 23.83619,17.6889621 23.83619,17.6889621 C23.83619,17.6889621 25.3248366,16.7152845 26.0452418,16.1938112 C26.469465,15.8867319 26.8876797,15.5675043 27.2898538,15.2320655 C27.6654202,14.9188207 28.3809099,14.2514621 28.3809099,14.2514621 Z M5.25321556,17.4707509 C4.7467259,17.6985888 4.13643797,17.9812353 3.73651297,18.1954276 C2.99498538,18.592575 1.535894,19.2872957 1.58403452,19.5127767 C1.65762073,19.8574431 3.30949659,19.1907879 4.17024142,19.019781 C4.71787849,18.9109802 5.26244056,18.7968069 5.80817245,18.6803414 C5.58798625,18.2952897 5.39658107,17.8898655 5.25321556,17.4707509 Z M25.4444875,18.0230138 C25.2252237,18.024419 24.9908625,18.0372655 24.7063409,18.0688112 C23.8347211,18.1654491 23.5987788,18.2433784 22.901384,18.4702121 C22.6529245,18.551025 22.5063021,18.6809655 22.3114056,18.7881 C21.961178,18.9806198 21.6312995,19.212944 21.2661469,19.3753845 C20.7414435,19.6088026 20.1832168,19.7584517 19.6336038,19.9249534 C19.1804099,20.0622466 19.1177219,20.0890879 18.2623754,20.2940267 C18.1139056,20.3296 18.2535392,20.5721431 18.3862978,20.7573888 C20.4155512,20.7985112 26.553309,20.8966397 26.6352202,20.5553414 L27.0878064,18.6749534 C27.128134,18.6605431 27.168703,18.6465034 27.2090349,18.63185 C27.1920349,18.567225 27.1700443,18.5025491 27.1443797,18.4594362 C27.0695625,18.3337526 26.9603771,18.2196914 26.8291857,18.1550181 C26.6087211,18.0463362 26.3470728,18.0635362 26.101815,18.0472595 C25.870078,18.0318802 25.6637512,18.0216129 25.4444875,18.0230138 Z M26.5544012,18.5294793 C26.7976271,18.5335224 26.9948073,18.5705474 26.9935176,18.6911172 C26.9907418,18.9506655 26.433028,18.9379147 26.1772461,18.9632078 C24.5274995,19.1263414 23.9489487,19.0985922 22.8340349,19.103294 C22.6198366,19.1041991 22.1928711,19.0817422 22.1928711,19.0817422 C22.1928711,19.0817422 23.2641754,18.8274741 24.2160392,18.712669 C24.7694952,18.6459164 25.309284,18.5769121 25.8405004,18.5591129 C26.0227237,18.5530095 26.3111754,18.5254397 26.5544012,18.5294793 Z M25.2909314,19.5639621 C25.4892435,19.560169 25.6877392,19.5663672 25.8836038,19.5935957 C26.0384961,19.615131 26.2132581,19.6229147 26.3334961,19.722906 C26.3871711,19.7675414 26.449453,19.8631328 26.4277849,19.9087897 C26.3837616,20.00155 26.217965,20.0059698 25.8647461,20.0300181 C25.4412271,20.0588526 25.028209,20.0929552 24.6093581,20.1054491 C23.5708452,20.1364267 21.49244,20.1000612 21.49244,20.1000612 C21.49244,20.1000612 22.1406409,19.9278974 22.4703495,19.8683802 C23.20584,19.7356129 23.949578,19.6391647 24.695565,19.5935957 C24.8929461,19.5815388 25.0926193,19.567756 25.2909314,19.5639621 Z"/>
    <path fill="#2471A8" d="M2.71988889,26.7011111 L1.77955556,26.7011111 C1.73237013,27.0718537 1.64811172,27.3617027 1.52677778,27.5706667 L0.566222222,27.51 C0.417925184,27.2538506 0.343777778,26.8561508 0.343777778,26.3168889 C0.343777778,26.0877026 0.367370134,25.8787417 0.414555556,25.69 L5.33866667,25.69 L5.43977778,26.4887778 L2.50755556,30.8871111 C2.32555465,31.1702236 2.13681579,31.3926659 1.94133333,31.5544444 L1.83011111,31.6353333 L1.88066667,31.7465556 C2.19074229,31.6858886 2.52103528,31.6555556 2.87155556,31.6555556 L4.10511111,31.6555556 C4.15229653,31.284813 4.23655495,30.994964 4.35788889,30.786 L5.31844444,30.8466667 C5.46674148,31.1028161 5.54088889,31.5005158 5.54088889,32.0397778 C5.54088889,32.2689641 5.51729653,32.477925 5.47011111,32.6666667 L0.252777778,32.6666667 L0.151666667,31.8678889 L3.08388889,27.4695556 C3.2658898,27.186443 3.45799899,26.9640008 3.66022222,26.8022222 L3.76133333,26.7213333 L3.71077778,26.6101111 C3.40070215,26.6707781 3.07040916,26.7011111 2.71988889,26.7011111 Z M8.45288889,32.7475556 C7.64399596,32.7475556 7.03565019,32.531854 6.62783333,32.1004444 C6.22001648,31.6690349 6.01611111,31.0421523 6.01611111,30.2197778 C6.01611111,29.7209605 6.08688818,29.2912425 6.22844444,28.9306111 C6.37000071,28.5699797 6.5621099,28.2919269 6.80477778,28.0964444 C7.27663199,27.7189611 7.82599687,27.5302222 8.45288889,27.5302222 C9.07978091,27.5302222 9.56005389,27.6903132 9.89372222,28.0105 C10.2273906,28.3306868 10.3942222,28.9053292 10.3942222,29.7344444 C10.3942222,30.2197802 10.1549283,30.4624444 9.67633333,30.4624444 L7.48222222,30.4624444 C7.50918532,30.8871132 7.61872126,31.1870732 7.81083333,31.3623333 C8.00294541,31.5375935 8.30796087,31.6252222 8.72588889,31.6252222 C8.95507522,31.6252222 9.1741471,31.5982595 9.38311111,31.5443333 C9.59207512,31.4904071 9.74374027,31.4364818 9.83811111,31.3825556 L9.97966667,31.3016667 L10.283,32.1105556 C10.2425554,32.157741 10.1835745,32.2167219 10.1060556,32.2875 C10.0285366,32.3582781 9.83305712,32.4526476 9.51961111,32.5706111 C9.2061651,32.6885747 8.85059458,32.7475556 8.45288889,32.7475556 Z M9.08988889,29.5625556 C9.10337044,29.4681847 9.11011111,29.3535933 9.11011111,29.2187778 C9.11011111,29.0839623 9.05618572,28.940723 8.94833333,28.7890556 C8.84048094,28.6373881 8.65342726,28.5615556 8.38716667,28.5615556 C8.12090608,28.5615556 7.91700071,28.6424436 7.77544444,28.8042222 C7.63388818,28.9660008 7.53951875,29.2389981 7.49233333,29.6232222 L9.08988889,29.5625556 Z M10.8997778,27.6111111 C11.2705204,27.5302218 11.6041837,27.4897778 11.9007778,27.4897778 C12.1973719,27.4897778 12.4434064,27.4965185 12.6388889,27.51 L12.6388889,28.0054444 C13.0905208,27.688628 13.5724789,27.5302222 14.0847778,27.5302222 C14.7588552,27.5302222 15.247554,27.7223314 15.5508889,28.1065556 C15.8542237,28.4907797 16.0058889,29.1311437 16.0058889,30.0276667 C16.0058889,30.5062617 15.9351118,30.9275537 15.7935556,31.2915556 C15.6519993,31.6555574 15.4598901,31.9386657 15.2172222,32.1408889 C14.7521088,32.5453354 14.1993736,32.7475556 13.559,32.7475556 C13.2826282,32.7475556 13.019742,32.7205929 12.7703333,32.6666667 L12.7703333,33.5362222 C13.168039,33.6440746 13.4241846,33.7687771 13.5387778,33.9103333 L13.4376667,34.6888889 L10.8997778,34.6888889 L10.7986667,33.9103333 C10.8862967,33.7889994 11.0716653,33.6744079 11.3547778,33.5665556 L11.3547778,28.7334444 C11.1188507,28.6525552 10.9334822,28.5379637 10.7986667,28.3896667 L10.8997778,27.6111111 Z M13.4578889,31.7162222 C13.7949276,31.7162222 14.0611842,31.5662422 14.2566667,31.2662778 C14.4521491,30.9663133 14.5498889,30.5517619 14.5498889,30.0226111 C14.5498889,29.4934603 14.4959635,29.1311491 14.3881111,28.9356667 C14.2802587,28.7401842 14.0847792,28.6424444 13.8016667,28.6424444 C13.3702571,28.6424444 13.0264828,28.7435545 12.7703333,28.9457778 L12.7703333,31.6353333 C12.9792973,31.6892595 13.2084802,31.7162222 13.4578889,31.7162222 Z M16.5215556,27.6111111 C16.8922982,27.5302218 17.2259615,27.4897778 17.5225556,27.4897778 C17.8191496,27.4897778 18.0651842,27.4965185 18.2606667,27.51 L18.2606667,28.0054444 C18.7122986,27.688628 19.1942567,27.5302222 19.7065556,27.5302222 C20.380633,27.5302222 20.8693318,27.7223314 21.1726667,28.1065556 C21.4760015,28.4907797 21.6276667,29.1311437 21.6276667,30.0276667 C21.6276667,30.5062617 21.5568896,30.9275537 21.4153333,31.2915556 C21.2737771,31.6555574 21.0816679,31.9386657 20.839,32.1408889 C20.3738866,32.5453354 19.8211514,32.7475556 19.1807778,32.7475556 C18.904406,32.7475556 18.6415198,32.7205929 18.3921111,32.6666667 L18.3921111,33.5362222 C18.7898168,33.6440746 19.0459624,33.7687771 19.1605556,33.9103333 L19.0594444,34.6888889 L16.5215556,34.6888889 L16.4204444,33.9103333 C16.5080745,33.7889994 16.693443,33.6744079 16.9765556,33.5665556 L16.9765556,28.7334444 C16.7406284,28.6525552 16.5552599,28.5379637 16.4204444,28.3896667 L16.5215556,27.6111111 Z M19.0796667,31.7162222 C19.4167054,31.7162222 19.682962,31.5662422 19.8784444,31.2662778 C20.0739269,30.9663133 20.1716667,30.5517619 20.1716667,30.0226111 C20.1716667,29.4934603 20.1177413,29.1311491 20.0098889,28.9356667 C19.9020365,28.7401842 19.706557,28.6424444 19.4234444,28.6424444 C18.9920349,28.6424444 18.6482605,28.7435545 18.3921111,28.9457778 L18.3921111,31.6353333 C18.6010751,31.6892595 18.830258,31.7162222 19.0796667,31.7162222 Z M24.5801111,32.7475556 C23.7712182,32.7475556 23.1628724,32.531854 22.7550556,32.1004444 C22.3472387,31.6690349 22.1433333,31.0421523 22.1433333,30.2197778 C22.1433333,29.7209605 22.2141104,29.2912425 22.3556667,28.9306111 C22.4972229,28.5699797 22.6893321,28.2919269 22.932,28.0964444 C23.4038542,27.7189611 23.9532191,27.5302222 24.5801111,27.5302222 C25.2070031,27.5302222 25.6872761,27.6903132 26.0209444,28.0105 C26.3546128,28.3306868 26.5214444,28.9053292 26.5214444,29.7344444 C26.5214444,30.2197802 26.2821505,30.4624444 25.8035556,30.4624444 L23.6094444,30.4624444 C23.6364075,30.8871132 23.7459435,31.1870732 23.9380556,31.3623333 C24.1301676,31.5375935 24.4351831,31.6252222 24.8531111,31.6252222 C25.0822974,31.6252222 25.3013693,31.5982595 25.5103333,31.5443333 C25.7192973,31.4904071 25.8709625,31.4364818 25.9653333,31.3825556 L26.1068889,31.3016667 L26.4102222,32.1105556 C26.3697776,32.157741 26.3107967,32.2167219 26.2332778,32.2875 C26.1557589,32.3582781 25.9602793,32.4526476 25.6468333,32.5706111 C25.3333873,32.6885747 24.9778168,32.7475556 24.5801111,32.7475556 Z M25.2171111,29.5625556 C25.2305927,29.4681847 25.2373333,29.3535933 25.2373333,29.2187778 C25.2373333,29.0839623 25.1834079,28.940723 25.0755556,28.7890556 C24.9677032,28.6373881 24.7806495,28.5615556 24.5143889,28.5615556 C24.2481283,28.5615556 24.0442229,28.6424436 23.9026667,28.8042222 C23.7611104,28.9660008 23.666741,29.2389981 23.6195556,29.6232222 L25.2171111,29.5625556 Z M27.0168889,25.4877778 C27.3943723,25.4001477 27.7448873,25.3563333 28.0684444,25.3563333 C28.3920016,25.3563333 28.6649989,25.3664443 28.8874444,25.3866667 L28.8874444,31.5443333 C29.1503346,31.6454449 29.3357032,31.7600364 29.4435556,31.8881111 L29.3424444,32.6666667 L27.0168889,32.6666667 L26.9157778,31.8881111 C27.0101486,31.7600364 27.1955171,31.6454449 27.4718889,31.5443333 L27.4718889,26.6101111 C27.2359618,26.5292218 27.0505933,26.4146304 26.9157778,26.2663333 L27.0168889,25.4877778 Z M29.9794444,27.6111111 C30.3569278,27.523481 30.7074428,27.4796667 31.031,27.4796667 C31.3545572,27.4796667 31.6275544,27.4897777 31.85,27.51 L31.85,31.5443333 C32.1128902,31.6454449 32.2982587,31.7600364 32.4061111,31.8881111 L32.305,32.6666667 L29.9794444,32.6666667 L29.8783333,31.8881111 C29.9727042,31.7600364 30.1580727,31.6454449 30.4344444,31.5443333 L30.4344444,28.7334444 C30.1985173,28.6525552 30.0131488,28.5379637 29.8783333,28.3896667 L29.9794444,27.6111111 Z M30.2827778,26.1500556 C30.2827778,25.6411271 30.5642009,25.3866667 31.1270556,25.3866667 C31.6899102,25.3866667 31.9713333,25.6411271 31.9713333,26.1500556 C31.9713333,26.658984 31.6899102,26.9134444 31.1270556,26.9134444 C30.5642009,26.9134444 30.2827778,26.658984 30.2827778,26.1500556 Z M32.9116667,27.6111111 C33.2824093,27.5302218 33.6160726,27.4897778 33.9126667,27.4897778 C34.2092607,27.4897778 34.4552953,27.4965185 34.6507778,27.51 L34.6507778,28.0155556 C34.8192971,27.8739993 35.0434245,27.7577227 35.3231667,27.6667222 C35.6029088,27.5757218 35.8708506,27.5302222 36.127,27.5302222 C36.7875959,27.5302222 37.2510172,27.6852577 37.5172778,27.9953333 C37.7835384,28.305409 37.9166667,28.8412925 37.9166667,29.603 L37.9166667,31.5443333 C38.1795569,31.6454449 38.3649254,31.7600364 38.4727778,31.8881111 L38.3716667,32.6666667 L36.0461111,32.6666667 L35.945,31.8881111 C36.0393708,31.7600364 36.2247394,31.6454449 36.5011111,31.5443333 L36.5011111,29.5423333 C36.5011111,29.1783315 36.4421302,28.9339821 36.3241667,28.8092778 C36.2062031,28.6845735 35.9955571,28.6222222 35.6922222,28.6222222 C35.3888874,28.6222222 35.0855571,28.730073 34.7822222,28.9457778 L34.7822222,31.5443333 C35.0451124,31.6454449 35.2304809,31.7600364 35.3383333,31.8881111 L35.2372222,32.6666667 L32.9116667,32.6666667 L32.8105556,31.8881111 C32.9049264,31.7600364 33.0902949,31.6454449 33.3666667,31.5443333 L33.3666667,28.7334444 C33.1307396,28.6525552 32.945371,28.5379637 32.8105556,28.3896667 L32.9116667,27.6111111 Z"/>
  </g>
</svg>
