<svg width="54" height="19" xmlns="http://www.w3.org/2000/svg">

 <g>
  <title>background</title>
  <rect fill="none" id="canvas_background" height="21" width="56" y="-1" x="-1"/>
 </g>
 <g>
  <title>Layer 1</title>
  <g stroke="null" transform="rotate(-0.020341550931334496 26.780492782590617,6.537162780762439) " id="svg_1" fill-rule="evenodd" fill="#DD5D28">
   <path stroke="null" id="svg_2" d="m14.698575,8.079959c0,1.505707 -0.114838,1.99732 -0.421091,2.360221c-0.334309,0.308953 -0.771576,0.479825 -1.225012,0.478744l0.114845,0.895684c0.702811,0.009745 1.384116,-0.244373 1.911528,-0.712932c0.548694,-0.571406 0.740102,-1.361579 0.740102,-2.573846l0,-5.693352l-1.122918,0l0,5.253204l0.002546,-0.007722zm8.37557,-0.686042c0,0.648618 0,1.21999 0.051026,1.711603l-0.98255,0l-0.063784,-1.029544l-0.025544,0c-0.206838,0.359832 -0.505048,0.657547 -0.86391,0.862474c-0.358862,0.204962 -0.765402,0.309713 -1.17776,0.303477c-0.969792,0 -2.128446,-0.545653 -2.128446,-2.748848l0,-3.670306l1.122925,0l0,3.482407c0,1.194271 0.357293,1.997292 1.375578,1.997292c0.31943,-0.00588 0.630042,-0.106704 0.892873,-0.289868c0.262865,-0.183135 0.466278,-0.440441 0.584778,-0.739649c0.068116,-0.187111 0.1027,-0.384965 0.102087,-0.584276l0,-3.860759l1.122939,0l0,4.565997l-0.010212,0zm2.116364,-2.518223c0,-0.803042 -0.025523,-1.451646 -0.05104,-2.059074l1.008073,0l0.051047,1.075868l0.025516,0c0.220538,-0.385481 0.541314,-0.702867 0.927681,-0.91788c0.38636,-0.215013 0.823627,-0.319479 1.26457,-0.302123c1.490437,0 2.613349,1.28692 2.613349,3.191556c0,2.257263 -1.350048,3.37174 -2.80731,3.37174c-0.374069,0.015834 -0.745801,-0.066735 -1.078687,-0.239539c-0.332885,-0.172839 -0.615491,-0.429999 -0.820069,-0.746234l-0.025523,0l0,3.410343l-1.11016,0l0,-6.794953l0.002553,0.010296zm1.110167,1.673007c0.00293,0.15651 0.020013,0.312461 0.05104,0.465867c0.09147,0.380459 0.306958,0.718931 0.611913,0.961135c0.304969,0.242239 0.681738,0.374167 1.069918,0.374669c1.186737,0 1.873246,-0.985773 1.873246,-2.424542c0,-1.25862 -0.650788,-2.334481 -1.834965,-2.334481c-0.398253,0.011238 -0.781341,0.156412 -1.08839,0.412441c-0.307048,0.256029 -0.520415,0.608223 -0.6062,1.000596c-0.044985,0.151397 -0.070711,0.307934 -0.076563,0.465867l0,1.075875l0,0.002574zm6.718474,-3.720077l1.350055,3.708902c0.140368,0.414401 0.293495,0.908589 0.395588,1.286941l0.025516,0c0.114838,-0.375778 0.242441,-0.857095 0.395581,-1.310085l1.224998,-3.683183l1.186723,0l-1.681852,4.475902c-0.803893,2.151758 -1.350041,3.255912 -2.115674,3.930277c-0.386869,0.362908 -0.861064,0.617549 -1.375578,0.738679l-0.28073,-0.960019c0.359985,-0.120962 0.693554,-0.310592 0.982557,-0.558529c0.408368,-0.344151 0.731662,-0.779472 0.944275,-1.27149c0.045397,-0.084969 0.075629,-0.177318 0.089321,-0.272819c-0.01008,-0.102931 -0.035903,-0.203643 -0.076563,-0.298587l-2.281572,-5.783413l1.225005,0l-0.007652,-0.002574zm7.52575,-1.805298l0,1.801692l1.605275,0l0,0.869958l-1.605275,0l0,3.382029c0,0.772155 0.216925,1.219997 0.842189,1.219997c0.219366,0.003453 0.438195,-0.022531 0.650788,-0.077219l0.051033,0.857095c-0.319367,0.113436 -0.656898,0.165808 -0.995308,0.154431c-0.224423,0.013867 -0.449146,-0.021771 -0.658509,-0.104458c-0.209363,-0.082688 -0.39833,-0.210402 -0.553737,-0.374285c-0.319011,-0.337155 -0.433856,-0.895684 -0.433856,-1.634363l0,-3.423227l-0.957041,0l0,-0.869958l0.957041,0l0,-1.505693l1.097402,-0.295999zm3.671157,5.149129c0.025516,1.544309 0.995315,2.180051 2.115674,2.180051c0.585741,0.018548 1.168441,-0.09214 1.707362,-0.324313l0.191415,0.815926c-0.645723,0.273489 -1.341531,0.40594 -2.041677,0.388648c-1.898763,0 -3.034446,-1.27149 -3.034446,-3.165844c0,-1.89434 1.097402,-3.384596 2.894078,-3.384596c2.013601,0 2.55209,1.801692 2.55209,2.957353c-0.001904,0.178217 -0.014663,0.356142 -0.038275,0.532776l-4.338568,0l-0.007652,0zm3.289646,-0.815905c0.012751,-0.725823 -0.293474,-1.855738 -1.554221,-1.855738c-1.135683,0 -1.630792,1.062999 -1.720113,1.855738l3.27688,0l-0.002546,0zm2.727789,-0.570911c0,-0.738693 -0.012758,-1.374434 -0.05104,-1.958697l0.982557,0l0.038282,1.232873l0.05104,0c0.28073,-0.844219 0.957041,-1.374434 1.707355,-1.374434c0.107569,-0.001583 0.214867,0.011398 0.318997,0.038609l0,1.075868c-0.125699,-0.027644 -0.254146,-0.040597 -0.382802,-0.038609c-0.791149,0 -1.350055,0.610002 -1.503181,1.464516c-0.031592,0.175867 -0.048661,0.35407 -0.051047,0.53279l0,3.346001l-1.11016,0l0,-4.318918z" fill-rule="nonzero"/>
   <ellipse stroke="null" id="svg_3" ry="5.107472" rx="5.094218" cy="6.438808" cx="5.374517"/>
   <ellipse stroke="null" id="svg_4" ry="0.697551" rx="0.697551" cy="1.863569" cx="1.108292"/>
   <ellipse stroke="null" id="svg_5" ry="0.697551" rx="0.697551" cy="0.948381" cx="8.770895"/>
   <ellipse stroke="null" id="svg_6" ry="0.830086" rx="0.827994" cy="11.993411" cx="1.914662"/>
  </g>
  <text xml:space="preserve" text-anchor="start" font-family="Helvetica, Arial, sans-serif" font-size="8" id="svg_7" y="17.630797" x="19.053793" stroke-width="0" stroke="#000" fill="#333333">+ OpenAI</text>
 </g>
</svg>