<svg width="106" height="37" xmlns="http://www.w3.org/2000/svg">

 <g>
  <title>background</title>
  <rect fill="none" id="canvas_background" height="39" width="108" y="-1" x="-1"/>
 </g>
 <g>
  <title>Layer 1</title>
  <g stroke="null" transform="rotate(-0.020341550931334496 52.907585144028644,12.725194931011352) " id="svg_1" fill-rule="evenodd" fill="#DD5D28">
   <path stroke="null" id="svg_2" d="m28.91486,15.788937c0,2.99009 -0.228049,3.966354 -0.836218,4.687017c-0.663883,0.61353 -1.532224,0.952854 -2.432675,0.950707l0.228063,1.778683c1.395669,0.019352 2.748631,-0.485286 3.795985,-1.415768c1.089617,-1.13472 1.469723,-2.703875 1.469723,-5.111242l0,-11.306075l-2.229934,0l0,10.432013l0.005056,-0.015334zm16.632525,-1.362368c0,1.288051 0,2.422702 0.101329,3.398966l-1.951185,0l-0.126665,-2.044508l-0.050727,0c-0.410747,0.714568 -1.002944,1.305782 -1.715586,1.712733c-0.712642,0.40702 -1.519965,0.61504 -2.33884,0.602656c-1.925849,0 -4.226748,-1.083578 -4.226748,-5.458767l0,-7.288634l2.229948,0l0,6.915496c0,2.371628 0.709526,3.966299 2.731676,3.966299c0.634336,-0.011677 1.251162,-0.211898 1.773101,-0.57563c0.522008,-0.363677 0.925953,-0.874644 1.161275,-1.468822c0.135267,-0.371573 0.203947,-0.764478 0.202728,-1.160278l0,-7.666842l2.229975,0l0,9.067331l-0.02028,0zm4.202756,-5.000784c0,-1.594712 -0.050685,-2.882735 -0.101357,-4.088988l2.001871,0l0.101371,2.136501l0.050672,0c0.437952,-0.765503 1.074962,-1.39578 1.842224,-1.822761c0.767248,-0.426982 1.63559,-0.634433 2.511231,-0.599968c2.959767,0 5.189687,2.555614 5.189687,6.337913c0,4.482558 -2.680977,6.69573 -5.574862,6.69573c-0.74284,0.031445 -1.48104,-0.132524 -2.142097,-0.475686c-0.661057,-0.343231 -1.222266,-0.853908 -1.628525,-1.481899l-0.050685,0l0,6.772389l-2.204598,0l0,-13.493677l0.00507,0.020446zm2.204612,3.322322c0.005818,0.310803 0.039742,0.620497 0.101357,0.925136c0.181644,0.755529 0.609568,1.427681 1.21516,1.908659c0.60562,0.481047 1.353821,0.743034 2.124685,0.744032c2.356668,0 3.719964,-1.957585 3.719964,-4.814748c0,-2.499415 -1.292359,-4.635902 -3.643943,-4.635902c-0.790866,0.022316 -1.551617,0.310609 -2.161365,0.819042c-0.609748,0.508433 -1.03346,1.207832 -1.203815,1.987021c-0.089333,0.300649 -0.14042,0.611507 -0.152042,0.925136l0,2.136514l0,0.005111zm13.341801,-7.38747l2.680991,7.365279c0.278749,0.822934 0.582833,1.80431 0.785574,2.555656l0.050672,0c0.228049,-0.746234 0.481449,-1.702053 0.785561,-2.601617l2.432648,-7.314205l2.35664,0l-3.339886,8.888416c-1.596402,4.273043 -2.680963,6.465714 -4.201385,7.804893c-0.768259,0.720677 -1.709935,1.226353 -2.731676,1.466897l-0.557483,-1.906443c0.714873,-0.240212 1.377287,-0.616785 1.951199,-1.109149c0.810952,-0.683428 1.452962,-1.547905 1.875178,-2.524973c0.09015,-0.168734 0.150186,-0.352124 0.177378,-0.541775c-0.020016,-0.204404 -0.071297,-0.404402 -0.152042,-0.592945l-4.530833,-11.484921l2.432661,0l-0.015196,-0.005111zm14.944921,-3.585029l0,3.577868l3.187816,0l0,1.727596l-3.187816,0l0,6.716163c0,1.533374 0.430777,2.422716 1.67245,2.422716c0.435625,0.006857 0.870184,-0.044743 1.292359,-0.153344l0.101343,1.702053c-0.634211,0.225265 -1.304493,0.329268 -1.976521,0.306675c-0.445668,0.027538 -0.891932,-0.043233 -1.307693,-0.207437c-0.415761,-0.164204 -0.791018,-0.417825 -1.099633,-0.74327c-0.633505,-0.669534 -0.861568,-1.778683 -0.861568,-3.24558l0,-6.797974l-1.900528,0l0,-1.727596l1.900528,0l0,-2.990062l2.179262,-0.587806zm7.290324,10.225337c0.050672,3.066748 1.976535,4.329227 4.201385,4.329227c1.163187,0.036833 2.320334,-0.182974 3.390544,-0.644032l0.380119,1.620297c-1.282302,0.543105 -2.664063,0.806131 -4.05444,0.771792c-3.770636,0 -6.025919,-2.524973 -6.025919,-6.286854c0,-3.761853 2.179262,-6.72126 5.747171,-6.72126c3.998685,0 5.068037,3.577868 5.068037,5.872824c-0.003782,0.353911 -0.029117,0.70724 -0.076007,1.058007l-8.615693,0l-0.015196,0zm6.532703,-1.620255c0.025322,-1.441367 -0.582792,-3.685195 -3.086432,-3.685195c-2.255284,0 -3.238488,2.110943 -3.415866,3.685195l6.507354,0l-0.005056,0zm5.416947,-1.133737c0,-1.466925 -0.025336,-2.729404 -0.101357,-3.889654l1.951199,0l0.076021,2.448287l0.101357,0c0.557483,-1.676481 1.900528,-2.729404 3.39053,-2.729404c0.213615,-0.003144 0.426691,0.022635 0.633477,0.076672l0,2.136501c-0.249617,-0.054896 -0.504693,-0.08062 -0.760183,-0.076672c-1.571094,0 -2.680991,1.211365 -2.985075,2.908292c-0.062737,0.349243 -0.096633,0.703126 -0.101371,1.058034l0,6.644616l-2.204598,0l0,-8.576671z" fill-rule="nonzero"/>
   <ellipse stroke="null" id="svg_3" ry="10.142612" rx="10.116292" cy="12.529878" cx="10.39879"/>
   <ellipse stroke="null" id="svg_4" ry="1.385224" rx="1.385224" cy="3.444193" cx="1.926759"/>
   <ellipse stroke="null" id="svg_5" ry="1.385224" rx="1.385224" cy="1.626778" cx="17.143446"/>
   <ellipse stroke="null" id="svg_6" ry="1.648417" rx="1.644261" cy="23.560418" cx="3.528078"/>
  </g>
  <text stroke="#000" transform="matrix(1.7232155799865723,0,0,1.7232155799865723,-20.995852306485176,-15.31182985752821) " xml:space="preserve" text-anchor="start" font-family="Helvetica, Arial, sans-serif" font-size="8" id="svg_7" y="28.574454" x="38.645343" stroke-width="0" fill="#333333">+ OpenAI</text>
 </g>
</svg>
